<svg width="119" height="40" viewBox="0 0 119 40" fill="none" xmlns="http://www.w3.org/2000/svg">
<path d="M48.0732 30.9707H63.4028V25.6565H55.227L62.994 16.6631V12.1665H48.0732V17.4807H55.8402L48.0732 26.474V30.9707Z" fill="#363636"/>
<path d="M65.2248 30.9707H70.7434V12.1665H65.2248V30.9707Z" fill="#363636"/>
<path d="M73.4149 30.9707H78.9335V20.9554C78.9335 18.5027 80.3234 17.0719 82.4082 17.0719C84.493 17.0719 85.8829 18.5027 85.8829 20.9554V30.9707H91.4015V19.9334C91.4015 15.028 88.2947 11.9621 83.839 11.9621C82.2038 11.9621 80.8139 12.4935 79.8328 12.984C79.2605 13.2702 78.77 13.6381 78.3203 14.006L77.5027 12.1665H73.4149V30.9707Z" fill="#363636"/>
<path d="M105.511 25.0433C105.348 25.2886 105.143 25.4929 104.857 25.6565C104.407 25.9835 103.672 26.2696 102.65 26.2696C100.565 26.2696 99.2157 24.8389 98.7661 23.4081H111.643L111.725 22.7949C111.766 22.427 111.847 22.0183 111.847 21.5686C111.847 15.6412 107.759 11.7577 102.65 11.7577C97.3353 11.7577 93.0431 16.05 93.0431 21.5686C93.0431 27.0872 97.3762 31.3795 102.445 31.3795C107.31 31.3795 110.253 28.518 111.234 25.4521L105.511 25.0433ZM98.7661 19.9334C99.2157 18.2983 100.565 16.8675 102.65 16.8675C104.734 16.8675 106.083 18.2983 106.533 19.9334H98.7661Z" fill="#363636"/>
<path d="M64.9849 7.19286C64.9849 8.82801 66.4156 10.2588 68.0508 10.2588C69.6859 10.2588 71.1167 8.82801 71.1167 7.19286C71.1167 5.55771 69.6859 4.12695 68.0508 4.12695C66.4156 4.12695 64.9849 5.55771 64.9849 7.19286Z" fill="#444444"/>
<path d="M112.868 28.2324C112.868 29.8676 114.299 31.2983 115.934 31.2983C117.569 31.2983 119 29.8676 119 28.2324C119 26.5973 117.569 25.1665 115.934 25.1665C114.299 25.1665 112.868 26.5973 112.868 28.2324Z" fill="#FF3D00"/>
<path d="M22.918 2.60314L21.6819 18.6719C21.6366 19.2618 22.103 19.7655 22.6947 19.7655H28.0972C29.0144 19.7655 29.4618 20.885 28.7973 21.5171L11.7612 37.7221C11.1144 38.3374 10.0455 37.8789 10.0455 36.9862V20.7812C10.0455 20.2202 9.59075 19.7655 9.02978 19.7655H2.76866C1.82295 19.7655 1.39047 18.5866 2.11181 17.975L21.2484 1.7505C21.9366 1.16702 22.9872 1.70354 22.918 2.60314Z" fill="#FF3D00"/>
</svg>

